<svg version="1.1" xmlns="http://www.w3.org/2000/svg" xmlns:xlink="http://www.w3.org/1999/xlink" width="800px" height="800px" viewBox="0,0,256,256"><g fill="#4c4c4c" fill-rule="nonzero" stroke="none" stroke-width="1" stroke-linecap="butt" stroke-linejoin="miter" stroke-miterlimit="10" stroke-dasharray="" stroke-dashoffset="0" font-family="none" font-weight="none" font-size="none" text-anchor="none" style="mix-blend-mode: normal"><g transform="translate(0.00954,-0.008) scale(8,8)"><path d="M31.772,16.043l-15.012,-15.724c-0.189,-0.197 -0.449,-0.307 -0.721,-0.307c-0.272,0 -0.533,0.111 -0.722,0.307l-15.089,15.724c-0.383,0.398 -0.369,1.031 0.029,1.414c0.399,0.382 1.031,0.371 1.414,-0.029l1.344,-1.401v14.963c0,0.552 0.448,1 1,1h6.986c0.551,0 0.998,-0.445 1,-0.997l0.031,-9.989h7.969v9.986c0,0.552 0.448,1 1,1h6.983c0.552,0 1,-0.448 1,-1v-14.968l1.343,1.407c0.197,0.204 0.459,0.308 0.722,0.308c0.249,0 0.499,-0.092 0.692,-0.279c0.398,-0.382 0.411,-1.015 0.029,-1.413zM26.985,14.213v15.776h-4.983v-9.986c0,-0.552 -0.448,-1 -1,-1h-9.965c-0.551,0 -0.998,0.445 -1,0.997l-0.031,9.989h-4.989v-15.777c0,-0.082 -0.013,-0.162 -0.032,-0.239l11.055,-11.52l10.982,11.507c-0.021,0.081 -0.036,0.165 -0.036,0.252z"></path></g></g></svg>