<svg version="1.1" xmlns="http://www.w3.org/2000/svg" xmlns:xlink="http://www.w3.org/1999/xlink" width="800px" height="800px" viewBox="0,0,256,256"><g fill="#4c4c4c" fill-rule="nonzero" stroke="none" stroke-width="1" stroke-linecap="butt" stroke-linejoin="miter" stroke-miterlimit="10" stroke-dasharray="" stroke-dashoffset="0" font-family="none" font-weight="none" font-size="none" text-anchor="none" style="mix-blend-mode: normal"><g transform="scale(8,8)"><g id="Layer_10"><path d="M16,2c-5.52285,0 -10,4.47715 -10,10c0,5.15 8.26,16.34 9.2,17.6c0.18885,0.25181 0.48524,0.4 0.8,0.4c0.31476,0 0.61115,-0.14819 0.8,-0.4c0.94,-1.26 9.2,-12.45 9.2,-17.6c0,-5.52285 -4.47715,-10 -10,-10zM16,27.3c-2.8,-3.91 -8,-11.87 -8,-15.3c0,-4.41828 3.58172,-8 8,-8c4.41828,0 8,3.58172 8,8c0,3.43 -5.2,11.39 -8,15.3z"></path><path d="M16,7c-2.76142,0 -5,2.23858 -5,5c0,2.76142 2.23858,5 5,5c2.76142,0 5,-2.23858 5,-5c0,-2.76142 -2.23858,-5 -5,-5zM16,15c-1.65685,0 -3,-1.34315 -3,-3c0,-1.65685 1.34315,-3 3,-3c1.65685,0 3,1.34315 3,3c0,1.65685 -1.34315,3 -3,3z"></path></g></g></g></svg>