<svg version="1.1" xmlns="http://www.w3.org/2000/svg" xmlns:xlink="http://www.w3.org/1999/xlink" width="800px" height="800px" viewBox="0,0,256,256"><g fill="#4c4c4c" fill-rule="nonzero" stroke="none" stroke-width="1" stroke-linecap="butt" stroke-linejoin="miter" stroke-miterlimit="10" stroke-dasharray="" stroke-dashoffset="0" font-family="none" font-weight="none" font-size="none" text-anchor="none" style="mix-blend-mode: normal"><g transform="translate(0,-0.00027) scale(0.53266,0.53266)"><path d="M480.606,458.915l-71.348,-71.349c12.528,-16.886 19.949,-37.777 19.949,-60.37c0,-36.203 -19.05,-68.036 -47.648,-86.016v-26.6c18.229,-14.417 29.962,-36.716 29.962,-61.721v-3.16l-35.182,-79.802h-34.73v-69.418h-271.697v69.419h-34.729l-35.183,79.802v3.16c0,25.005 11.733,47.305 29.963,61.721v209.898h268.632c9.217,2.76 18.977,4.25 29.08,4.25c22.594,0 43.485,-7.421 60.371,-19.95l71.348,71.349zM32.374,167.859h92.426c-6.33,19.508 -24.649,33.653 -46.213,33.653c-21.564,0.001 -39.882,-14.145 -46.213,-33.653zM332.934,201.513c-21.564,0 -39.882,-14.146 -46.212,-33.653h92.426c-6.332,19.507 -24.65,33.653 -46.214,33.653zM99.912,30.479h211.696v39.419h-211.696zM356.778,99.898l16.736,37.961h-335.507l16.737,-37.961zM251.974,167.859c-6.33,19.508 -24.649,33.653 -46.213,33.653c-21.564,0 -39.883,-14.146 -46.213,-33.653zM59.963,229.262c5.974,1.459 12.207,2.25 18.624,2.25c26.109,0 49.288,-12.812 63.587,-32.482c14.299,19.67 37.478,32.482 63.587,32.482c26.109,0 49.288,-12.812 63.587,-32.482c9.58,13.179 23.15,23.271 38.913,28.502c-46.73,9.086 -82.119,50.316 -82.119,99.663c0,25.787 9.669,49.355 25.565,67.283h-191.744zM327.675,398.729c-39.443,0 -71.533,-32.09 -71.533,-71.533c0,-39.443 32.09,-71.533 71.533,-71.533c39.443,0 71.532,32.089 71.532,71.533c0,39.444 -32.089,71.533 -71.532,71.533z"></path></g></g></svg>