<svg version="1.1" xmlns="http://www.w3.org/2000/svg" xmlns:xlink="http://www.w3.org/1999/xlink" width="800px" height="800px" viewBox="0,0,256,256"><g fill="none" fill-rule="nonzero" stroke="none" stroke-width="1" stroke-linecap="butt" stroke-linejoin="miter" stroke-miterlimit="10" stroke-dasharray="" stroke-dashoffset="0" font-family="none" font-weight="none" font-size="none" text-anchor="none" style="mix-blend-mode: normal"><g transform="scale(7.11111,7.11111)"><path d="M23,26c0,0.55228 -0.44772,1 -1,1h-14c-0.22,0 -0.43,0.2 -0.61,0.33l-3.39,2.67v-16c0,-0.55228 0.44772,-1 1,-1h3.86v-2h-3.86c-1.65685,0 -3,1.34315 -3,3v18c0.00304,0.37879 0.21983,0.72334 0.56,0.89c0.32709,0.14875 0.70884,0.11058 1,-0.1l5.15,-3.79h13.44c0.76609,0.02265 1.50733,-0.27313 2.04737,-0.81697c0.54005,-0.54384 0.83063,-1.28712 0.80263,-2.05303v-1.13h-2z" fill="#4c4c4c"></path><path d="M31,4h-17c-1.65685,0 -3,1.34315 -3,3v12c0,1.65685 1.34315,3 3,3h13.55l4.78,3.71c0.28928,0.21388 0.67115,0.25588 1,0.11c0.34728,-0.1654 0.56891,-0.51534 0.57,-0.9v-17.92c0.0009,-1.61857 -1.28232,-2.94605 -2.9,-3zM32,22.94l-3.5,-2.73c-0.17455,-0.13547 -0.38905,-0.20931 -0.61,-0.21h-13.89c-0.55228,0 -1,-0.44772 -1,-1v-12c0,-0.55228 0.44772,-1 1,-1h17c0.55314,0.0502 0.98208,0.50488 1,1.06z" fill="#4c4c4c"></path><rect x="0" y="0" width="36" height="36" fill-opacity="0" fill="#000000"></rect></g></g></svg>